<?xml version="1.0" encoding="utf-8"?>
<!-- Generator: Adobe Illustrator 19.0.0, SVG Export Plug-In . SVG Version: 6.00 Build 0)  -->
<!DOCTYPE svg PUBLIC "-//W3C//DTD SVG 1.0//EN" "http://www.w3.org/TR/2001/REC-SVG-20010904/DTD/svg10.dtd">
<svg version="1.0" id="Layer_1" xmlns="http://www.w3.org/2000/svg" xmlns:xlink="http://www.w3.org/1999/xlink" x="0px" y="0px"
	 viewBox="0 0 671.9 141.4" style="enable-background:new 0 0 671.9 141.4;" xml:space="preserve">
<g>
	<polygon points="0,0 0,141.5 23.6,117.9 23.6,0 	"/>
	<g>
		<path d="M75.4,56.6c4.4-5.9,7.1-13.3,7.1-21.2C82.5,15.8,66.7,0,47.2,0l0,23.6c6.5,0,11.8,5.3,11.8,11.8s-5.3,11.8-11.8,11.8v23.6
			h0c0,0,0,0,0,0c13,0,23.5,10.6,23.5,23.6c0,13-10.6,23.6-23.6,23.6v23.6c26,0,47.1-21.1,47.1-47.1C94.3,78.9,86.9,65.2,75.4,56.6"
			/>
	</g>
	<polygon points="459.7,0 459.7,141.4 483.3,117.9 483.3,0 	"/>
	<g>
		<path d="M506.8,0v23.6c13,0,23.6,10.6,23.6,23.6v47.1c0,13-10.6,23.6-23.6,23.6v23.6c26,0,47.1-21.1,47.1-47.1V47.2
			C554,21.1,532.9,0,506.8,0"/>
	</g>
	<polygon points="341.8,0 341.8,141.5 365.4,117.9 365.4,0 	"/>
	<rect x="389" y="0" width="47.1" height="23.6"/>
	<rect x="389" y="47.2" width="47.1" height="23.6"/>
	<rect x="389" y="117.9" width="47.1" height="23.6"/>
	<g>
		<path d="M577.6,70.7l23.6-23.6c0-13,10.6-23.6,23.6-23.6c13,0,23.6,10.6,23.6,23.6v23.6l23.6-23.6c0-26-21.1-47.1-47.1-47.1
			c-26,0-47.1,21.1-47.1,47.1V70.7z"/>
		<path d="M648.3,94.3c0,13-10.6,23.6-23.6,23.6s-23.6-10.6-23.6-23.6V70.7l-23.6,23.6c0,26,21.1,47.1,47.1,47.1
			c26,0,47.1-21.1,47.1-47.1V70.7L648.3,94.3z"/>
	</g>
	<polygon points="224,141.4 247.5,117.9 247.5,0 224,0 	"/>
	<g>
		<path d="M271.1,0v23.6c13,0,23.6,10.6,23.6,23.6c0,13-10.6,23.6-23.6,23.6v23.6c26,0,47.1-21.1,47.1-47.1S297.1,0,271.1,0"/>
	</g>
	<polygon points="294.7,141.4 318.3,141.4 318.3,117.9 294.7,94.3 	"/>
	<polygon points="176.8,47.2 176.8,47.2 153.2,70.7 153.2,141.5 176.8,117.9 176.8,117.9 176.8,70.7 176.8,70.7 200.4,47.2 200.4,0 
		176.8,0 	"/>
	<polygon points="129.7,47.2 129.7,0 106.1,0 106.1,47.2 129.7,70.7 153.2,47.2 	"/>
</g>
</svg>
